<?xml version="1.0" encoding="UTF-8" standalone="no"?>
<svg width="20px" height="20px" viewBox="0 0 20 20" version="1.1" xmlns="http://www.w3.org/2000/svg" xmlns:xlink="http://www.w3.org/1999/xlink">
    <!-- Generator: Sketch 46.1 (44463) - http://www.bohemiancoding.com/sketch -->
    <title>Facebook</title>
    <desc>Created with Sketch.</desc>
    <defs></defs>
    <g id="Game-Panel" stroke="none" stroke-width="1" fill="none" fill-rule="evenodd" opacity="0.842504529">
        <g id="Artboard-Copy" transform="translate(-424.000000, -353.000000)" fill="#10210B">
            <g id="Group-5" transform="translate(254.000000, 342.000000)">
                <path d="M189.8555,29.8069315 C189.8555,30.3860767 189.386077,30.8555 188.806931,30.8555 L183.965195,30.8555 L183.965195,23.4974057 L186.434972,23.4974057 L186.805025,20.6301452 L183.965195,20.6301452 L183.965195,18.7995495 C183.965195,17.9693896 184.196025,17.4031833 185.386404,17.4031833 L186.904913,17.4026657 L186.904913,14.8381755 C186.641995,14.8029817 185.740929,14.7248307 184.692361,14.7248307 C182.503099,14.7248307 181.004257,16.0611604 181.004257,18.5154112 L181.004257,20.6301452 L178.528268,20.6301452 L178.528268,23.4974057 L181.004257,23.4974057 L181.004257,30.8555 L171.904069,30.8555 C171.324923,30.8555 170.8555,30.3860767 170.8555,29.8069315 L170.8555,12.9040685 C170.8555,12.3249233 171.324923,11.8555 171.904069,11.8555 L188.806931,11.8555 C189.386077,11.8555 189.8555,12.3249233 189.8555,12.9040685 L189.8555,29.8069315" id="Facebook"></path>
            </g>
        </g>
    </g>
</svg>