<?xml version="1.0" encoding="utf-8"?>
<!-- Generator: Adobe Illustrator 16.0.0, SVG Export Plug-In . SVG Version: 6.00 Build 0)  -->
<!DOCTYPE svg PUBLIC "-//W3C//DTD SVG 1.1//EN" "http://www.w3.org/Graphics/SVG/1.1/DTD/svg11.dtd">
<svg version="1.1" id="Capa_1" xmlns="http://www.w3.org/2000/svg" xmlns:xlink="http://www.w3.org/1999/xlink" x="0px" y="0px"
	 width="17px" height="16px" viewBox="0 0 17 16" enable-background="new 0 0 17 16" xml:space="preserve">
<title>Combined Shape</title>
<desc>Created with Sketch.</desc>
<g id="Page-1">
	<g id="Artboard-1" transform="translate(-244.000000, -215.000000)">
		<path id="Combined-Shape" d="M258.565,218.435c-2.209-3.176-6.304-4.32-9.861-2.708c-3.659,1.658-5.498,5.663-4.378,9.508
			c1.12,3.854,4.829,6.252,8.807,5.682c3.969-0.568,6.867-3.885,6.867-7.899l-1.949-0.01c0,3.036-2.189,5.553-5.198,5.982
			c-3.009,0.429-5.808-1.378-6.657-4.294c-0.85-2.917,0.55-5.943,3.319-7.191c2.759-1.249,5.958-0.3,7.587,2.257l0.379-0.241
			L256,221h5v-5l-1,1L258.565,218.435z"/>
	</g>
</g>
</svg>
