<?xml version="1.0" encoding="UTF-8" standalone="no"?>
<svg width="22px" height="22px" viewBox="0 0 22 22" version="1.1" xmlns="http://www.w3.org/2000/svg" xmlns:xlink="http://www.w3.org/1999/xlink">
    <!-- Generator: Sketch 46.1 (44463) - http://www.bohemiancoding.com/sketch -->
    <title>cancel-path</title>
    <desc>Created with Sketch.</desc>
    <defs></defs>
    <g id="Game-Panel" stroke="none" stroke-width="1" fill="none" fill-rule="evenodd" opacity="0.842504529">
        <g id="Artboard-Copy" transform="translate(-264.000000, -351.000000)" fill="#10210B">
            <g id="Group-5" transform="translate(254.000000, 342.000000)">
                <path d="M10.1883602,12.7351265 L17.3482902,19.8333333 L10.1883602,26.9315401 C9.9420602,27.1757171 9.9348302,27.5644385 10.1812802,27.8087639 L12.8827532,30.4869493 C13.1251432,30.7272496 13.5199572,30.7254433 13.7676052,30.4799299 L20.9275362,23.3817231 L28.0874662,30.4799299 C28.3337662,30.7241069 28.7258682,30.7312747 28.9723182,30.4869493 L31.6737922,27.8087639 C31.9161822,27.5684636 31.9143602,27.1770535 31.6667112,26.9315401 L24.5067812,19.8333333 L31.6667112,12.7351265 C31.9130122,12.4909495 31.9202422,12.1022281 31.6737922,11.8579027 L28.9723182,9.17971732 C28.7299202,8.93941702 28.3351122,8.94122582 28.0874662,9.18673672 L20.9275362,16.2849435 L13.7676052,9.18673672 C13.5213052,8.94255972 13.1292032,8.93539192 12.8827532,9.17971732 L10.1812802,11.8579027 C9.9388902,12.098203 9.9407122,12.4896131 10.1883602,12.7351265 L10.1883602,12.7351265 Z" id="cancel-path"></path>
            </g>
        </g>
    </g>
</svg>